<svg
     xmlns="http://www.w3.org/2000/svg"
     x="0px" y="0px" width="34px" height="34px"
     viewBox="0 0 34 34"
     xml:space="preserve">
     <g class="menu-icon-svg">
       <circle cx="16.75" cy="16.75" r="16.25"/>
       <path clip-path="url(#SVGID_2_)" fill="#FFFFFF" d="M12.069,13.929c0-0.768,0.109-1.469,0.326-2.1 c0.218-0.632,0.541-1.169,0.969-1.612c0.428-0.443,0.947-0.788,1.557-1.034c0.61-0.247,1.306-0.37,2.091-0.37 c0.609,0,1.179,0.09,1.709,0.272c0.53,0.181,0.998,0.446,1.404,0.795c0.407,0.348,0.726,0.769,0.958,1.262 c0.233,0.494,0.348,1.06,0.348,1.698c0,0.814-0.177,1.503-0.533,2.07c-0.356,0.565-0.809,1.11-1.361,1.633 c-0.45,0.45-0.809,0.801-1.078,1.055c-0.268,0.254-0.467,0.505-0.598,0.752c-0.131,0.246-0.218,0.548-0.262,0.904 c-0.043,0.355-0.072,0.867-0.087,1.535H16.14c-0.014-0.668,0.022-1.227,0.109-1.677s0.229-0.856,0.425-1.22 c0.196-0.362,0.457-0.711,0.784-1.045s0.722-0.711,1.186-1.132c0.407-0.377,0.745-0.798,1.013-1.263 c0.269-0.464,0.403-0.98,0.403-1.546c0-0.436-0.084-0.834-0.251-1.197c-0.167-0.364-0.392-0.671-0.674-0.926 c-0.284-0.254-0.614-0.453-0.991-0.599c-0.378-0.144-0.777-0.218-1.198-0.218c-0.58,0-1.096,0.102-1.546,0.305 c-0.45,0.204-0.82,0.484-1.11,0.839c-0.291,0.355-0.508,0.772-0.653,1.252c-0.145,0.478-0.211,1.002-0.197,1.567H12.069z  M15.923,22.379h1.829v2.308h-1.829V22.379z"/>
     </g>
   </svg>
