<svg version="1.1"
	 xmlns="http://www.w3.org/2000/svg" xmlns:xlink="http://www.w3.org/1999/xlink" xmlns:a="http://ns.adobe.com/AdobeSVGViewerExtensions/3.0/"
	 x="0px" y="0px" viewBox="0 0 129 28" style="enable-background:new 0 0 129 28;"
	 xml:space="preserve">
<style type="text/css">
	.st0{fill:#FFFFFF;}
</style>
<path class="st0" d="M115.2,28c-3.3,0-6.4-1.2-8.8-3.2c0.9,0.4,2,0.5,3,0.5c12.5,0.1,7.1-16.8,19-15.2c0.3,1.2,0.5,2.5,0.5,3.8
	C129,21.7,122.8,28,115.2,28z M114,8.2c-4.9-0.7-5.1-7.6,1-8.2c0.1,0,0.3,0,0.4,0c6.1,0.1,11.2,4.1,13,9.8C123.9,3.1,119,9,114,8.2z
	 M110.2,23.6c-1.7,1.1-4.5,0.8-6.4-1.9c-0.4-0.6-0.8-1.2-1.1-1.8c-0.8-1.8-1.3-3.8-1.3-6c0-0.6,0-1.1,0.1-1.7c3,4.1,6.5,4,8.6,5.3
	c1,0.6,1.6,1.7,1.6,3C111.9,21.9,111.2,23,110.2,23.6z M89.7,4.9h2.6v18.2h-2.6V4.9z M77.4,23.1h-2.6l0-16.5c0-1,0.8-1.8,1.7-1.8H85
	v2.4h-7.6v5.9H85v2.4h-7.6V23.1z M61.3,23.3c-5,0-9.1-4.2-9.1-9.2c0-5.2,4-9.3,9.1-9.3c5.1,0,9.1,4.1,9.1,9.3
	C70.4,19.1,66.3,23.3,61.3,23.3z M61.2,7.2c-3.6,0-6.4,3-6.4,6.9c0,3.8,2.9,6.7,6.5,6.7c3.6,0,6.5-3,6.5-6.7
	C67.8,10.1,65,7.2,61.2,7.2z M46,23.3c-0.7,0-1.2-0.3-1.5-0.9c-2.6-4.3-7.4-12.4-7.9-13.3l0,14h-2.6l0-16.6c0-1,0.8-1.8,1.8-1.8
	c0.7,0,1.2,0.3,1.5,0.9c2.6,4.3,7.4,12.4,7.9,13.3l0-14h2.6l0,16.6C47.8,22.5,47,23.3,46,23.3z M25.7,18l-7,0l-1.9,5.1h-2.7
	l6.4-17.3c0.2-0.7,0.9-1.1,1.7-1.1s1.4,0.5,1.7,1.1l6.4,17.3h-2.7L25.7,18z M22.2,8.2l-2.6,7.4l5.3,0L22.2,8.2z M4.4,11.5
	C4.6,11.6,5,11.8,5.5,12c0.5,0.2,1.1,0.4,1.8,0.6c1.3,0.5,2.6,1,3.2,1.5c1,0.9,1.5,2.1,1.5,3.5c0,3.4-2.7,5.7-5.9,5.7
	c-3.2,0-6-2.3-6-5.6h2.5C2.9,20,4.3,21.1,6,21.1c1.6,0,3.3-1.1,3.3-3c0-1.1-0.5-1.9-1.4-2.4c-0.2-0.1-0.6-0.3-1-0.4
	c-0.4-0.1-0.9-0.3-1.4-0.5c-1-0.3-2-0.7-2.7-1.1c-1.3-0.8-2.1-2.1-2.1-3.7c0-3.1,2.3-5.3,5.6-5.3c2.6,0,5.2,2,5.4,5H9
	C8.9,8,7.6,6.9,6.1,6.9c-1.6,0-3.1,1.2-2.9,2.9C3.3,10.6,3.7,11,4.4,11.5z"/>
</svg>
